<?xml version="1.0" encoding="iso-8859-1"?>
<!-- Generator: Adobe Illustrator 25.3.1, SVG Export Plug-In . SVG Version: 6.00 Build 0)  -->
<svg version="1.1" id="Layer_1" xmlns="http://www.w3.org/2000/svg" xmlns:xlink="http://www.w3.org/1999/xlink" x="0px" y="0px"
	 viewBox="0 0 714 714" style="enable-background:new 0 0 714 714;" xml:space="preserve">
<path style="fill:#B22073;" d="M140.429,650.89h433.143c8.183-6.682,16.05-13.747,23.574-21.155H116.855
	C124.379,637.143,132.245,644.208,140.429,650.89z"/>
<path style="fill:#DD0E7D;" d="M94.974,606.094h524.052c5.764-6.824,11.253-13.889,16.458-21.163H78.516
	C83.721,592.205,89.21,599.271,94.974,606.094z"/>
<path style="fill:#ED278C;" d="M63.725,562.5h586.549c4.421-7.307,8.567-14.782,12.438-22.431H51.288
	C55.158,547.718,59.304,555.192,63.725,562.5z"/>
<path style="fill:#EE3A84;" d="M41.494,518.98h631.011c3.637-8.6,6.94-17.384,9.877-26.335H31.618
	C34.554,501.596,37.857,510.38,41.494,518.98z"/>
<path style="fill:#EE3C70;" d="M26.129,474.184h661.742c2.319-8.65,4.296-17.434,5.923-26.344H20.206
	C21.833,456.75,23.81,465.534,26.129,474.184z"/>
<path style="fill:#F0586C;" d="M17.687,432.083h678.626c1.335-9.81,2.252-19.754,2.728-29.814H14.959
	C15.434,412.33,16.352,422.273,17.687,432.083z"/>
<path style="fill:#FDE03B;" d="M357,43.178c-160.113,0-294.559,109.879-332.031,258.347h664.062
	C651.559,153.056,517.114,43.178,357,43.178z"/>
<path style="fill:#FCB454;" d="M690.874,309.191H23.126c-2.628,11.503-4.671,23.232-6.098,35.144h679.944
	C695.546,332.423,693.502,320.694,690.874,309.191z"/>
<path style="fill:#F47C64;" d="M698.157,355.839H15.843c-0.851,9.818-1.285,19.745-1.285,29.78c0,1.218,0.008,2.436,0.017,3.654
	h684.849c0.008-1.218,0.017-2.436,0.017-3.654C699.441,375.584,699.008,365.657,698.157,355.839z"/>
</svg>
